<svg xmlns="http://www.w3.org/2000/svg" version="1.1" xmlns:xlink="http://www.w3.org/1999/xlink" width="1000" height="1000"><g clip-path="url(#SvgjsClipPath1571)"><rect width="1000" height="1000" fill="#ffffff"></rect><g transform="matrix(0.9765625,0,0,0.9765625,0,0)"><svg xmlns="http://www.w3.org/2000/svg" version="1.1" xmlns:xlink="http://www.w3.org/1999/xlink" width="1024" height="1024"><svg xmlns="http://www.w3.org/2000/svg" width="1024" height="1024">
  <defs>
    <mask id="calHole" maskUnits="userSpaceOnUse">
      <rect x="0" y="0" width="1024" height="1024" fill="#ffffff"></rect>
      <path fill="#000000" d="M428 426h246v171H428V426zM428 353h246v41H428v-41z"></path>
    </mask>
  <clipPath id="SvgjsClipPath1571"><rect width="1000" height="1000" x="0" y="0" rx="500" ry="500"></rect></clipPath></defs>
  <path fill="none" d="M0 0h1024v1024H0V0z"></path>
  <path fill="none" d="m300.492 180.869 2.307-.007c2.566-.005 5.132-.004 7.698-.002l5.558-.01c5.102-.008 10.205-.01 15.307-.01 5.498-.002 10.997-.01 16.495-.016 12.03-.014 24.058-.02 36.087-.024 7.51-.003 15.019-.007 22.528-.012a146498.523 146498.523 0 0 1 78.541-.028h2.031c21.73-.004 43.459-.02 65.188-.043 22.975-.025 45.95-.039 68.925-.04 12.523 0 25.047-.007 37.57-.025 10.664-.015 21.328-.02 31.992-.012 5.442.004 10.883.003 16.324-.011 4.983-.013 9.966-.012 14.949 0 1.8.002 3.601 0 5.402-.01 11.594-.052 22.359-.077 31.782 7.568 6.4 6.359 8.925 12.24 8.965 21.158l-.004 2.6.008 2.783c.008 3.1.008 6.2.009 9.3l.013 6.708c.012 6.163.018 12.326.022 18.489.006 5.958.016 11.916.025 17.874.026 15.966.041 31.932.054 47.898l.013 15.864a184696.155 184696.155 0 0 1 .07 103.886v2.452c.012 26.24.043 52.48.085 78.72a58131.676 58131.676 0 0 1 .077 92.353v2.272c.004 12.067.025 24.134.051 36.201.026 12.13.034 24.259.023 36.388-.005 6.572-.002 13.143.022 19.714.023 6.016.022 12.03.003 18.046-.003 2.177.003 4.353.018 6.53.136 21.043.136 21.043-5.63 28.577l-1.486 1.985c-5.407 6.237-12.397 8.635-20.493 9.382-4.837.202-9.672.172-14.512.148a2717.645 2717.645 0 0 1-21.022.023c-5.542-.007-11.085.009-16.628.022-10.85.021-21.7.021-32.549.013-8.818-.006-17.637-.005-26.455.001l-3.805.003-7.653.006c-17.121.011-34.243.016-51.365.005l-2.027-.002-16.298-.011c-21.196-.015-42.392-.006-63.587.022a40982.516 40982.516 0 0 1-79.109.033l-3.789-.001c-8.807-.002-17.614.007-26.422.022-10.734.017-21.467.017-32.2-.005-5.476-.012-10.952-.015-16.428.004-5.014.017-10.028.01-15.042-.014a555.373 555.373 0 0 0-5.436.011c-11.775.078-20.619-.827-29.631-9.085-5.803-6.293-7.193-12.555-7.177-20.913v-3.82l.016-4.099.005-4.216c.003-3.687.013-7.374.024-11.062.01-3.767.015-7.534.02-11.302.01-7.383.028-14.767.049-22.15l3.086-.028c3.81-.04 7.619-.106 11.428-.18a580.4 580.4 0 0 1 4.929-.063c2.374-.022 4.746-.068 7.12-.12l2.194-.003c6.05-.17 11.454-1.89 15.868-6.19 3.865-4.54 4.668-9.574 4.375-15.416-.998-5.871-3.713-9.195-8.281-12.871-11.378-7.473-27.111-2.751-40.719-3.129v-90l36-1c6.132-3.066 9.1-5.473 12.313-11.438 1.639-6.11.702-10.886-1.97-16.476-2.73-4.238-6.587-6.5-11.343-8.086l-35-1v-89l37-1c8.326-4.987 8.326-4.987 12-13 1.07-6.405.21-11.013-3.566-16.309-2.792-3.293-5.344-5.328-9.434-6.691l-36-1v-89l36-1c7.87-3.657 7.87-3.657 12-10 1.755-5.266 2.072-11.096.129-16.36-3.095-5.397-6.933-8.246-12.868-10.218-3.276-.611-6.549-.66-9.87-.738l-2.203-.063c-2.312-.066-4.625-.125-6.938-.184l-4.715-.13c-3.845-.107-7.69-.209-11.535-.307a3303.71 3303.71 0 0 1-.207-22.22c-.021-3.44-.05-6.88-.095-10.32-.052-3.965-.071-7.93-.089-11.894l-.062-3.703c-.003-9.689 2.061-17.105 8.676-24.36 6.392-5.408 14.184-6.655 22.27-6.634z"></path>
  <path mask="url(#calHole)" fill="#1E90FF" d="M489.25 286.688c4.487 2.486 7.115 5.406 8.75 10.312v22h106v-20c5.8-11.6 5.8-11.6 13-14 6.346-.538 10.71.352 16 4 3.872 4.17 5.129 6.612 5.098 12.227l-.01 3.125-.025 3.273-.014 3.297A2489.57 2489.57 0 0 1 638 319l3.19-.063c3.968-.074 7.936-.12 11.904-.157 1.706-.02 3.412-.047 5.117-.082 13.387-.267 26.088.034 36.789 9.259 9.292 9.491 12.472 19.533 12.388 32.611l.016 3.08c.014 3.38.007 6.759 0 10.138l.02 7.301c.017 5.91.019 11.818.014 17.728-.004 4.807-.003 9.614.002 14.42l.003 2.08.004 4.181c.014 13.053.009 26.105-.003 39.158-.01 11.918.003 23.836.027 35.754.024 12.262.034 24.524.027 36.786-.003 6.875-.001 13.749.017 20.623.016 6.468.011 12.934-.008 19.402-.003 2.366 0 4.733.01 7.1.12 29.299.12 29.299-8.818 39.97-8.353 8.41-17.2 11.8-28.946 11.859h-2.93l-3.134.01c-3.472.011-6.943.015-10.414.019l-7.461.02c-7.466.02-14.931.03-22.397.039-3.519.004-7.037.01-10.556.015a42087.122 42087.122 0 0 1-46.495.046c-12.214.008-24.43.033-36.644.066-12.55.033-25.1.05-37.65.054-7.043.002-14.085.01-21.128.036-6.626.025-13.252.028-19.878.018-2.43 0-4.859.006-7.288.02-3.322.017-6.644.01-9.966-.003l-2.897.033c-9.715-.092-18.57-3.47-25.692-10.2-8.613-9.068-10.373-19.24-10.37-31.301l-.011-3.07c-.011-3.4-.015-6.8-.019-10.2l-.02-7.309c-.02-7.312-.03-14.625-.039-21.938-.004-3.448-.01-6.895-.015-10.342a40404.323 40404.323 0 0 1-.046-45.557c-.008-11.966-.033-23.93-.066-35.896-.033-12.295-.05-24.591-.054-36.887a6090.26 6090.26 0 0 0-.036-20.697 3685.48 3685.48 0 0 1-.018-19.477c0-2.38-.006-4.758-.02-7.137-.017-3.256-.01-6.511.003-9.768l-.033-2.828c.1-10.371 3.822-19.975 10.521-27.914 8.428-8.137 19.053-11.172 30.484-11.098l2.472.005c2.598.005 5.196.018 7.794.03 1.764.006 3.529.01 5.293.014 4.319.011 8.638.028 12.957.049l-.063-1.8a682.427 682.427 0 0 1-.187-8.2l-.102-2.832c-.086-6.207.633-11.058 4.352-16.168 6.55-5.214 13.524-6.894 21.25-3.313z"></path>
  <path fill="#1E90FF" d="m314.514 146.626 5.45-.012c4.947-.01 9.895-.003 14.843.008 5.353.01 10.706 0 16.06-.005 10.47-.01 20.939-.003 31.409.009 12.206.014 24.413.012 36.62.01 21.788-.003 43.577.008 65.365.028 21.116.019 42.232.026 63.347.02a91296.803 91296.803 0 0 1 80.106.011c8.497.004 16.994.004 25.491.002 10.364-.002 20.728.003 31.092.017 5.282.008 10.565.012 15.847.007 4.845-.004 9.69.001 14.535.014 1.743.003 3.486.002 5.229-.002 8.484-.018 16.856.187 25.292 1.143l2.052.228c16.437 2.08 31.204 10.623 41.756 23.31 8.382 11.43 12.317 23.141 12.25 37.225l.01 2.827c.01 3.12.004 6.238 0 9.358a7929.74 7929.74 0 0 1 .023 25.415c0 6.011.008 12.022.017 18.034.02 13.812.025 27.625.026 41.438a62741.116 62741.116 0 0 0 .018 43.54c.013 21.484.02 42.969.02 64.453v2.454l-.001 12.313V435.886c-.002 25.64.013 51.28.04 76.919a76422.537 76422.537 0 0 1 .046 95.674v2.294c0 12.168.013 24.335.03 36.502.017 12.235.02 24.47.006 36.705-.007 6.625-.007 13.25.01 19.874.016 6.07.014 12.14-.004 18.21-.003 2.19 0 4.38.012 6.57.098 20.525-2.5 37.59-17.234 53.085L782 784l-1.934 1.969c-14.16 13.424-32.47 15.638-50.998 15.539a2739.875 2739.875 0 0 1-21.11.015c-5.566-.01-11.134.005-16.7.016-10.894.018-21.787.014-32.68.002-8.857-.009-17.713-.01-26.57-.006l-3.824.002-7.693.004c-23.342.011-46.684 0-70.027-.021-21.283-.02-42.567-.018-63.85.001a50999.262 50999.262 0 0 1-79.489.014l-3.809-.002c-8.841-.003-17.682.003-26.523.012-10.781.011-21.562.008-32.343-.013-5.497-.01-10.993-.015-16.49-.001-5.039.012-10.078.005-15.117-.016a696.23 696.23 0 0 0-5.446.007c-20.77.103-38.556-4.68-53.737-19.702-13.46-14.27-16.997-30.31-16.855-49.355l.008-4.468c.008-3.891.027-7.782.05-11.674.02-3.982.03-7.964.04-11.946.02-7.792.055-15.585.097-23.377l-2.842.048c-3.5.05-7 .088-10.5.117-1.511.015-3.023.035-4.533.061-2.18.037-4.36.054-6.54.067l-3.966.048c-6.492-.611-10.39-3.54-14.619-8.341-3.858-5.502-3.882-10.468-3-17 2.441-6.894 6.673-9.046 13-13h33v-90h-33c-10.696-6.685-10.696-6.685-13-13-.913-6.177-.742-11.81 3-17 3.426-3.434 6.64-5.82 11-8h32v-89h-32c-6.656-3.328-10.288-6.264-13.375-13-1.293-6.206-.918-10.616 2.102-16.14 2.916-4.259 6.675-6.56 11.273-8.86h32v-89h-32c-11.887-7.43-11.887-7.43-14-15-.623-6.333.298-10.761 4-16 4.397-4.71 8.739-7.777 15.322-8.227l3.729.032 1.996.008c2.089.011 4.177.036 6.266.062 1.422.01 2.845.02 4.267.027 3.474.022 6.947.057 10.42.098l-.027-2.304c-.08-7.222-.141-14.443-.18-21.665-.021-3.711-.049-7.423-.095-11.134-.044-3.592-.067-7.184-.078-10.776-.01-2.014-.041-4.029-.073-6.043-.004-17.066 6.01-31.248 17.754-43.57 16.763-15.575 38.414-17.983 60.213-17.882zM275 191c-3.348 5.395-5.127 10.285-5.114 16.665v3.518l.016 3.797.005 3.889c.003 3.408.013 6.816.024 10.224.01 3.478.015 6.957.02 10.436.01 6.824.028 13.647.049 20.471l2.87.028c3.56.045 7.12.106 10.68.18 1.532.028 3.064.049 4.596.063 20.324.199 20.324.199 27.354 7.229 3.604 6.006 4.278 10.473 3.5 17.5-1.372 4.702-3.224 7.383-7.062 10.437C298.565 302.55 289.104 298.47 270 299v89l36 1c6.541 3.738 10.098 6.232 13 13 1.021 6.984-.06 12.188-4 18-8 5-8 5-45 6v89l35 1c10.333 5.167 10.333 5.167 13.25 11.875 1.495 6.228 1.064 10.696-1.973 16.262-2.64 3.852-5.81 6.374-10.277 7.863l-36 1v90l36 1c6.467 3.695 9.195 5.305 12.313 11.687 1.136 5.479 1.075 10.552-1.477 15.63-3.2 4.645-6.43 6.954-11.836 8.683-2.784.423-5.527.487-8.34.512l-2.324.054c-2.424.054-4.849.088-7.273.121-1.655.034-3.31.068-4.963.104-4.033.085-8.066.152-12.1.209-.07 8.059-.123 16.117-.155 24.176a2263.94 2263.94 0 0 1-.071 11.229c-.033 3.618-.05 7.235-.059 10.854a524.53 524.53 0 0 1-.032 4.122c-.126 11.06.579 19.566 8.344 27.826 6.3 5.725 11.94 7.945 20.402 7.927l2.323.007c2.59.007 5.18.007 7.77.006l5.603.011c5.148.01 10.296.014 15.444.017 5.547.004 11.093.013 16.64.022 13.403.02 26.806.03 40.21.039l18.928.015a134631.86 134631.86 0 0 0 81.294.045c21.923.008 43.846.031 65.77.064 23.178.034 46.356.054 69.535.057 12.635.002 25.27.011 37.904.036 10.76.022 21.52.03 32.281.02 5.49-.004 10.98-.002 16.47.017 5.028.018 10.057.017 15.086.001 1.816-.002 3.632.002 5.449.014 11.662.072 22.121-.014 31.302-8.193 5.5-5.548 7.997-12.617 8.092-20.316l-.03-2.561.017-2.803c.014-3.092-.001-6.183-.016-9.275a3910.262 3910.262 0 0 0 .007-25.191c-.01-5.958 0-11.916.007-17.874.018-12.936.012-25.873-.003-38.809-.013-11.32-.018-22.64-.016-33.96v-2.276l.003-9.146c.007-28.595-.009-57.19-.035-85.784-.023-25.404-.028-50.809-.018-76.213l.008-19.518v-2.427a73419.564 73419.564 0 0 0-.015-75.086 37591.42 37591.42 0 0 1 0-33.94c.006-12.864 0-25.727-.02-38.59-.01-6.566-.015-13.13-.008-19.696.007-6.007 0-12.014-.017-18.021-.004-2.176-.003-4.351.003-6.527.008-2.953-.002-5.906-.017-8.86l.02-2.568c-.081-8.378-2.561-14.85-8.302-21.043-7.29-6.353-15.313-7.982-24.71-7.962l-2.31-.007c-2.563-.007-5.126-.007-7.689-.006l-5.558-.011c-5.098-.01-10.196-.014-15.294-.017-5.496-.004-10.992-.013-16.488-.022-13.275-.02-26.55-.03-39.825-.039l-18.752-.015a132237.014 132237.014 0 0 0-66.361-.04h-2.019l-10.126-.004h-2.03c-21.715-.009-43.43-.032-65.146-.065-22.965-.034-45.929-.054-68.894-.057-12.516-.002-25.032-.01-37.548-.036-10.658-.022-21.315-.03-31.973-.02-5.438.004-10.875.002-16.312-.017-4.98-.018-9.96-.017-14.942-.001-1.798.002-3.597-.002-5.396-.014-12.363-.077-25.157.256-33.725 10.505z"></path>
  <path fill="none" d="M428 426h246v171H428V426zM428 353h246v41H428v-41z"></path>
  <path fill="#1E90FF" d="M511 523c3.878 2.631 6.163 5.466 8.688 9.375 6 8.412 13.32 12.024 23.312 14.152 11.58 1.825 22.343-.229 32.313-6.59 4.634-3.468 7.684-7.644 10.8-12.484 2.094-2.722 3.775-4.023 6.887-5.453 4.824-.529 8.209.374 12 3.375 3.185 4.18 3.574 7.46 3 12.625-5.657 13.61-17.954 23.065-31 29-4.57 1.693-9.249 2.926-14 4l-2.523.586C542.859 574.532 525.384 569.104 511 559c-7.562-5.811-15.16-12.913-17.637-22.453-.342-4.47.638-7.071 3.45-10.547 4.073-4.345 8.582-4.694 14.187-3z"></path>
  <path fill="#1E90FF" d="M613.207 460.477c6.354 5.163 9.564 10.545 10.73 18.648.278 4.413-.262 7.219-2.937 10.875-2.915 2.43-4.72 2.965-8.5 3.438-4.272-.535-5.62-1.246-8.5-4.438-1.541-2.926-2.82-5.912-4-9-2.391-.211-2.391-.211-5 1-1.22 2.214-2.108 4.488-3.05 6.832-1.226 2.8-2.105 3.983-4.95 5.168-4.75.528-6.862.702-10.938-1.812-3.542-3.757-3.397-7.571-3.347-12.489.66-6.252 3.8-12.335 8.285-16.699 10.327-6.72 21.442-8.726 32.207-1.523zM518.95 460.184c5.898 4.517 9.451 10.598 10.495 17.953.177 4.775.132 7.883-2.32 12.05-3.327 2.838-5.7 3.174-10.098 3.079-3.408-.447-4.779-1.705-7.027-4.266-1.537-2.928-2.82-5.913-4-9-2.391-.211-2.391-.211-5 1-1.22 2.214-2.108 4.488-3.05 6.832-1.226 2.8-2.105 3.983-4.95 5.168-5.057.642-5.057.642-8 0-3.222-2.605-5.75-4.833-6.238-9.066-.233-7.839 1.876-13.084 5.926-19.684 9.574-9.316 22.813-11.018 34.261-4.066z"></path>
  <path fill="#1E90FF" d="M465 301h1c.029 3.146.047 6.292.063 9.438l.025 2.72.01 2.588.016 2.396C466 320 466 320 465 321c-3.103.089-6.183.115-9.285.098l-2.82-.005c-2.986-.005-5.972-.018-8.957-.03A7811.26 7811.26 0 0 1 423 321c4.136-2.317 7.842-2.256 12.484-2.195l2.472.008c2.598.011 5.196.037 7.794.062 1.764.01 3.529.02 5.293.027 4.32.022 8.638.057 12.957.098l-.035-3.684c-.01-1.584-.019-3.169-.027-4.753l-.026-2.432c-.009-2.044.036-4.088.088-6.131zM611 288l3 1-2.438 1.875c-2.6 1.867-2.6 1.867-3.562 4.125-.153 1.812-.25 3.628-.316 5.445l-.127 3.262-.12 3.418-.13 3.441c-.107 2.811-.209 5.623-.307 8.434l-3 1a604.474 604.474 0 0 1-.25-10l-.102-2.832c-.098-7.057 1.002-12.648 5.988-17.887L611 288z"></path>
  <path fill="#1E90FF" d="M195 395c1 3 1 3 .063 5.188-1.802 4.769-1.686 9.944-.063 14.812l-2 1c-2.018-5.171-3.259-9.885-1.102-15.223A99.894 99.894 0 0 1 195 395z"></path>
  <path fill="#1E90FF" d="M314 522h2c2.818 5.549 4.533 9.741 4 16h-2l-.332-2.266-.48-2.984-.458-2.953c-.762-2.92-1.768-4.54-3.73-6.797zM599 522v3l-3.125-.25c-4.465.288-6.398 1.536-9.875 4.25 2.337-6.162 6.78-7.434 13-7z"></path>
  <path fill="#1E90FF" d="M525 468c2.503 2.938 3.47 5.179 4 9h-2c-1.563-2.813-1.563-2.813-3-6l1-3z"></path>
</svg></svg></g></g></svg>